<?xml version="1.0" encoding="UTF-8"?>
<svg width="51px" height="267px" viewBox="0 0 51 267" version="1.1" xmlns="http://www.w3.org/2000/svg" xmlns:xlink="http://www.w3.org/1999/xlink">
    <title>Group 3</title>
    <g id="Page-1" stroke="none" stroke-width="1" fill="none" fill-rule="evenodd" opacity="0.63797433">
        <g id="About" transform="translate(-489.000000, -390.000000)" fill="#8C93A8">
            <g id="Group-3" transform="translate(489.000000, 390.000000)">
                <g id="Group" transform="translate(25.500000, 223.500000) rotate(90.000000) translate(-25.500000, -223.500000) translate(-18.000000, 198.000000)">
                    <rect id="Rectangle" transform="translate(66.000000, 48.000000) scale(1, -1) rotate(90.000000) translate(-66.000000, -48.000000) " x="63" y="45" width="6" height="6"></rect>
                    <rect id="Rectangle" transform="translate(57.000000, 48.000000) scale(1, -1) rotate(90.000000) translate(-57.000000, -48.000000) " x="54" y="45" width="6" height="6"></rect>
                    <rect id="Rectangle" transform="translate(48.000000, 48.000000) scale(1, -1) rotate(90.000000) translate(-48.000000, -48.000000) " x="45" y="45" width="6" height="6"></rect>
                    <rect id="Rectangle" transform="translate(75.000000, 48.000000) scale(1, -1) rotate(90.000000) translate(-75.000000, -48.000000) " x="72" y="45" width="6" height="6"></rect>
                    <rect id="Rectangle" transform="translate(66.000000, 39.000000) scale(1, -1) rotate(90.000000) translate(-66.000000, -39.000000) " x="63" y="36" width="6" height="6"></rect>
                    <rect id="Rectangle" transform="translate(57.000000, 39.000000) scale(1, -1) rotate(90.000000) translate(-57.000000, -39.000000) " x="54" y="36" width="6" height="6"></rect>
                    <rect id="Rectangle" transform="translate(48.000000, 39.000000) scale(1, -1) rotate(90.000000) translate(-48.000000, -39.000000) " x="45" y="36" width="6" height="6"></rect>
                    <rect id="Rectangle" transform="translate(75.000000, 39.000000) scale(1, -1) rotate(90.000000) translate(-75.000000, -39.000000) " x="72" y="36" width="6" height="6"></rect>
                    <rect id="Rectangle" transform="translate(66.000000, 30.000000) scale(1, -1) rotate(90.000000) translate(-66.000000, -30.000000) " x="63" y="27" width="6" height="6"></rect>
                    <rect id="Rectangle" transform="translate(48.000000, 30.000000) scale(1, -1) rotate(90.000000) translate(-48.000000, -30.000000) " x="45" y="27" width="6" height="6"></rect>
                    <rect id="Rectangle" transform="translate(57.000000, 30.000000) scale(1, -1) rotate(90.000000) translate(-57.000000, -30.000000) " x="54" y="27" width="6" height="6"></rect>
                    <rect id="Rectangle" transform="translate(75.000000, 30.000000) scale(1, -1) rotate(90.000000) translate(-75.000000, -30.000000) " x="72" y="27" width="6" height="6"></rect>
                    <rect id="Rectangle" transform="translate(84.000000, 48.000000) scale(1, -1) rotate(90.000000) translate(-84.000000, -48.000000) " x="81" y="45" width="6" height="6"></rect>
                    <rect id="Rectangle" transform="translate(84.000000, 39.000000) scale(1, -1) rotate(90.000000) translate(-84.000000, -39.000000) " x="81" y="36" width="6" height="6"></rect>
                    <rect id="Rectangle" transform="translate(84.000000, 30.000000) scale(1, -1) rotate(90.000000) translate(-84.000000, -30.000000) " x="81" y="27" width="6" height="6"></rect>
                    <rect id="Rectangle" transform="translate(66.000000, 21.000000) scale(1, -1) rotate(90.000000) translate(-66.000000, -21.000000) " x="63" y="18" width="6" height="6"></rect>
                    <rect id="Rectangle" transform="translate(57.000000, 21.000000) scale(1, -1) rotate(90.000000) translate(-57.000000, -21.000000) " x="54" y="18" width="6" height="6"></rect>
                    <rect id="Rectangle" transform="translate(48.000000, 21.000000) scale(1, -1) rotate(90.000000) translate(-48.000000, -21.000000) " x="45" y="18" width="6" height="6"></rect>
                    <rect id="Rectangle" transform="translate(75.000000, 21.000000) scale(1, -1) rotate(90.000000) translate(-75.000000, -21.000000) " x="72" y="18" width="6" height="6"></rect>
                    <rect id="Rectangle" transform="translate(66.000000, 12.000000) scale(1, -1) rotate(90.000000) translate(-66.000000, -12.000000) " x="63" y="9" width="6" height="6"></rect>
                    <rect id="Rectangle" transform="translate(57.000000, 12.000000) scale(1, -1) rotate(90.000000) translate(-57.000000, -12.000000) " x="54" y="9" width="6" height="6"></rect>
                    <rect id="Rectangle" transform="translate(48.000000, 12.000000) scale(1, -1) rotate(90.000000) translate(-48.000000, -12.000000) " x="45" y="9" width="6" height="6"></rect>
                    <rect id="Rectangle" transform="translate(75.000000, 12.000000) scale(1, -1) rotate(90.000000) translate(-75.000000, -12.000000) " x="72" y="9" width="6" height="6"></rect>
                    <rect id="Rectangle" transform="translate(66.000000, 3.000000) scale(1, -1) rotate(90.000000) translate(-66.000000, -3.000000) " x="63" y="0" width="6" height="6"></rect>
                    <rect id="Rectangle" transform="translate(48.000000, 3.000000) scale(1, -1) rotate(90.000000) translate(-48.000000, -3.000000) " x="45" y="0" width="6" height="6"></rect>
                    <rect id="Rectangle" transform="translate(57.000000, 3.000000) scale(1, -1) rotate(90.000000) translate(-57.000000, -3.000000) " x="54" y="0" width="6" height="6"></rect>
                    <rect id="Rectangle" transform="translate(75.000000, 3.000000) scale(1, -1) rotate(90.000000) translate(-75.000000, -3.000000) " x="72" y="0" width="6" height="6"></rect>
                    <rect id="Rectangle" transform="translate(84.000000, 21.000000) scale(1, -1) rotate(90.000000) translate(-84.000000, -21.000000) " x="81" y="18" width="6" height="6"></rect>
                    <rect id="Rectangle" transform="translate(84.000000, 12.000000) scale(1, -1) rotate(90.000000) translate(-84.000000, -12.000000) " x="81" y="9" width="6" height="6"></rect>
                    <rect id="Rectangle" transform="translate(84.000000, 3.000000) scale(1, -1) rotate(90.000000) translate(-84.000000, -3.000000) " x="81" y="0" width="6" height="6"></rect>
                    <rect id="Rectangle" transform="translate(21.000000, 48.000000) scale(1, -1) rotate(90.000000) translate(-21.000000, -48.000000) " x="18" y="45" width="6" height="6"></rect>
                    <rect id="Rectangle" transform="translate(12.000000, 48.000000) scale(1, -1) rotate(90.000000) translate(-12.000000, -48.000000) " x="9" y="45" width="6" height="6"></rect>
                    <rect id="Rectangle" transform="translate(3.000000, 48.000000) scale(1, -1) rotate(90.000000) translate(-3.000000, -48.000000) " x="0" y="45" width="6" height="6"></rect>
                    <rect id="Rectangle" transform="translate(30.000000, 48.000000) scale(1, -1) rotate(90.000000) translate(-30.000000, -48.000000) " x="27" y="45" width="6" height="6"></rect>
                    <rect id="Rectangle" transform="translate(21.000000, 39.000000) scale(1, -1) rotate(90.000000) translate(-21.000000, -39.000000) " x="18" y="36" width="6" height="6"></rect>
                    <rect id="Rectangle" transform="translate(12.000000, 39.000000) scale(1, -1) rotate(90.000000) translate(-12.000000, -39.000000) " x="9" y="36" width="6" height="6"></rect>
                    <rect id="Rectangle" transform="translate(3.000000, 39.000000) scale(1, -1) rotate(90.000000) translate(-3.000000, -39.000000) " x="0" y="36" width="6" height="6"></rect>
                    <rect id="Rectangle" transform="translate(30.000000, 39.000000) scale(1, -1) rotate(90.000000) translate(-30.000000, -39.000000) " x="27" y="36" width="6" height="6"></rect>
                    <rect id="Rectangle" transform="translate(21.000000, 30.000000) scale(1, -1) rotate(90.000000) translate(-21.000000, -30.000000) " x="18" y="27" width="6" height="6"></rect>
                    <rect id="Rectangle" transform="translate(3.000000, 30.000000) scale(1, -1) rotate(90.000000) translate(-3.000000, -30.000000) " x="0" y="27" width="6" height="6"></rect>
                    <rect id="Rectangle" transform="translate(12.000000, 30.000000) scale(1, -1) rotate(90.000000) translate(-12.000000, -30.000000) " x="9" y="27" width="6" height="6"></rect>
                    <rect id="Rectangle" transform="translate(30.000000, 30.000000) scale(1, -1) rotate(90.000000) translate(-30.000000, -30.000000) " x="27" y="27" width="6" height="6"></rect>
                    <rect id="Rectangle" transform="translate(39.000000, 48.000000) scale(1, -1) rotate(90.000000) translate(-39.000000, -48.000000) " x="36" y="45" width="6" height="6"></rect>
                    <rect id="Rectangle" transform="translate(39.000000, 39.000000) scale(1, -1) rotate(90.000000) translate(-39.000000, -39.000000) " x="36" y="36" width="6" height="6"></rect>
                    <rect id="Rectangle" transform="translate(39.000000, 30.000000) scale(1, -1) rotate(90.000000) translate(-39.000000, -30.000000) " x="36" y="27" width="6" height="6"></rect>
                    <rect id="Rectangle" transform="translate(21.000000, 21.000000) scale(1, -1) rotate(90.000000) translate(-21.000000, -21.000000) " x="18" y="18" width="6" height="6"></rect>
                    <rect id="Rectangle" transform="translate(12.000000, 21.000000) scale(1, -1) rotate(90.000000) translate(-12.000000, -21.000000) " x="9" y="18" width="6" height="6"></rect>
                    <rect id="Rectangle" transform="translate(3.000000, 21.000000) scale(1, -1) rotate(90.000000) translate(-3.000000, -21.000000) " x="0" y="18" width="6" height="6"></rect>
                    <rect id="Rectangle" transform="translate(30.000000, 21.000000) scale(1, -1) rotate(90.000000) translate(-30.000000, -21.000000) " x="27" y="18" width="6" height="6"></rect>
                    <rect id="Rectangle" transform="translate(21.000000, 12.000000) scale(1, -1) rotate(90.000000) translate(-21.000000, -12.000000) " x="18" y="9" width="6" height="6"></rect>
                    <rect id="Rectangle" transform="translate(12.000000, 12.000000) scale(1, -1) rotate(90.000000) translate(-12.000000, -12.000000) " x="9" y="9" width="6" height="6"></rect>
                    <rect id="Rectangle" transform="translate(3.000000, 12.000000) scale(1, -1) rotate(90.000000) translate(-3.000000, -12.000000) " x="0" y="9" width="6" height="6"></rect>
                    <rect id="Rectangle" transform="translate(30.000000, 12.000000) scale(1, -1) rotate(90.000000) translate(-30.000000, -12.000000) " x="27" y="9" width="6" height="6"></rect>
                    <rect id="Rectangle" transform="translate(21.000000, 3.000000) scale(1, -1) rotate(90.000000) translate(-21.000000, -3.000000) " x="18" y="0" width="6" height="6"></rect>
                    <rect id="Rectangle" transform="translate(3.000000, 3.000000) scale(1, -1) rotate(90.000000) translate(-3.000000, -3.000000) " x="0" y="0" width="6" height="6"></rect>
                    <rect id="Rectangle" transform="translate(12.000000, 3.000000) scale(1, -1) rotate(90.000000) translate(-12.000000, -3.000000) " x="9" y="0" width="6" height="6"></rect>
                    <rect id="Rectangle" transform="translate(30.000000, 3.000000) scale(1, -1) rotate(90.000000) translate(-30.000000, -3.000000) " x="27" y="0" width="6" height="6"></rect>
                    <rect id="Rectangle" transform="translate(39.000000, 21.000000) scale(1, -1) rotate(90.000000) translate(-39.000000, -21.000000) " x="36" y="18" width="6" height="6"></rect>
                    <rect id="Rectangle" transform="translate(39.000000, 12.000000) scale(1, -1) rotate(90.000000) translate(-39.000000, -12.000000) " x="36" y="9" width="6" height="6"></rect>
                    <rect id="Rectangle" transform="translate(39.000000, 3.000000) scale(1, -1) rotate(90.000000) translate(-39.000000, -3.000000) " x="36" y="0" width="6" height="6"></rect>
                </g>
                <g id="Group" transform="translate(25.500000, 133.500000) rotate(90.000000) translate(-25.500000, -133.500000) translate(-18.000000, 108.000000)">
                    <rect id="Rectangle" transform="translate(66.000000, 48.000000) scale(1, -1) rotate(90.000000) translate(-66.000000, -48.000000) " x="63" y="45" width="6" height="6"></rect>
                    <rect id="Rectangle" transform="translate(57.000000, 48.000000) scale(1, -1) rotate(90.000000) translate(-57.000000, -48.000000) " x="54" y="45" width="6" height="6"></rect>
                    <rect id="Rectangle" transform="translate(48.000000, 48.000000) scale(1, -1) rotate(90.000000) translate(-48.000000, -48.000000) " x="45" y="45" width="6" height="6"></rect>
                    <rect id="Rectangle" transform="translate(75.000000, 48.000000) scale(1, -1) rotate(90.000000) translate(-75.000000, -48.000000) " x="72" y="45" width="6" height="6"></rect>
                    <rect id="Rectangle" transform="translate(66.000000, 39.000000) scale(1, -1) rotate(90.000000) translate(-66.000000, -39.000000) " x="63" y="36" width="6" height="6"></rect>
                    <rect id="Rectangle" transform="translate(57.000000, 39.000000) scale(1, -1) rotate(90.000000) translate(-57.000000, -39.000000) " x="54" y="36" width="6" height="6"></rect>
                    <rect id="Rectangle" transform="translate(48.000000, 39.000000) scale(1, -1) rotate(90.000000) translate(-48.000000, -39.000000) " x="45" y="36" width="6" height="6"></rect>
                    <rect id="Rectangle" transform="translate(75.000000, 39.000000) scale(1, -1) rotate(90.000000) translate(-75.000000, -39.000000) " x="72" y="36" width="6" height="6"></rect>
                    <rect id="Rectangle" transform="translate(66.000000, 30.000000) scale(1, -1) rotate(90.000000) translate(-66.000000, -30.000000) " x="63" y="27" width="6" height="6"></rect>
                    <rect id="Rectangle" transform="translate(48.000000, 30.000000) scale(1, -1) rotate(90.000000) translate(-48.000000, -30.000000) " x="45" y="27" width="6" height="6"></rect>
                    <rect id="Rectangle" transform="translate(57.000000, 30.000000) scale(1, -1) rotate(90.000000) translate(-57.000000, -30.000000) " x="54" y="27" width="6" height="6"></rect>
                    <rect id="Rectangle" transform="translate(75.000000, 30.000000) scale(1, -1) rotate(90.000000) translate(-75.000000, -30.000000) " x="72" y="27" width="6" height="6"></rect>
                    <rect id="Rectangle" transform="translate(84.000000, 48.000000) scale(1, -1) rotate(90.000000) translate(-84.000000, -48.000000) " x="81" y="45" width="6" height="6"></rect>
                    <rect id="Rectangle" transform="translate(84.000000, 39.000000) scale(1, -1) rotate(90.000000) translate(-84.000000, -39.000000) " x="81" y="36" width="6" height="6"></rect>
                    <rect id="Rectangle" transform="translate(84.000000, 30.000000) scale(1, -1) rotate(90.000000) translate(-84.000000, -30.000000) " x="81" y="27" width="6" height="6"></rect>
                    <rect id="Rectangle" transform="translate(66.000000, 21.000000) scale(1, -1) rotate(90.000000) translate(-66.000000, -21.000000) " x="63" y="18" width="6" height="6"></rect>
                    <rect id="Rectangle" transform="translate(57.000000, 21.000000) scale(1, -1) rotate(90.000000) translate(-57.000000, -21.000000) " x="54" y="18" width="6" height="6"></rect>
                    <rect id="Rectangle" transform="translate(48.000000, 21.000000) scale(1, -1) rotate(90.000000) translate(-48.000000, -21.000000) " x="45" y="18" width="6" height="6"></rect>
                    <rect id="Rectangle" transform="translate(75.000000, 21.000000) scale(1, -1) rotate(90.000000) translate(-75.000000, -21.000000) " x="72" y="18" width="6" height="6"></rect>
                    <rect id="Rectangle" transform="translate(66.000000, 12.000000) scale(1, -1) rotate(90.000000) translate(-66.000000, -12.000000) " x="63" y="9" width="6" height="6"></rect>
                    <rect id="Rectangle" transform="translate(57.000000, 12.000000) scale(1, -1) rotate(90.000000) translate(-57.000000, -12.000000) " x="54" y="9" width="6" height="6"></rect>
                    <rect id="Rectangle" transform="translate(48.000000, 12.000000) scale(1, -1) rotate(90.000000) translate(-48.000000, -12.000000) " x="45" y="9" width="6" height="6"></rect>
                    <rect id="Rectangle" transform="translate(75.000000, 12.000000) scale(1, -1) rotate(90.000000) translate(-75.000000, -12.000000) " x="72" y="9" width="6" height="6"></rect>
                    <rect id="Rectangle" transform="translate(66.000000, 3.000000) scale(1, -1) rotate(90.000000) translate(-66.000000, -3.000000) " x="63" y="0" width="6" height="6"></rect>
                    <rect id="Rectangle" transform="translate(48.000000, 3.000000) scale(1, -1) rotate(90.000000) translate(-48.000000, -3.000000) " x="45" y="0" width="6" height="6"></rect>
                    <rect id="Rectangle" transform="translate(57.000000, 3.000000) scale(1, -1) rotate(90.000000) translate(-57.000000, -3.000000) " x="54" y="0" width="6" height="6"></rect>
                    <rect id="Rectangle" transform="translate(75.000000, 3.000000) scale(1, -1) rotate(90.000000) translate(-75.000000, -3.000000) " x="72" y="0" width="6" height="6"></rect>
                    <rect id="Rectangle" transform="translate(84.000000, 21.000000) scale(1, -1) rotate(90.000000) translate(-84.000000, -21.000000) " x="81" y="18" width="6" height="6"></rect>
                    <rect id="Rectangle" transform="translate(84.000000, 12.000000) scale(1, -1) rotate(90.000000) translate(-84.000000, -12.000000) " x="81" y="9" width="6" height="6"></rect>
                    <rect id="Rectangle" transform="translate(84.000000, 3.000000) scale(1, -1) rotate(90.000000) translate(-84.000000, -3.000000) " x="81" y="0" width="6" height="6"></rect>
                    <rect id="Rectangle" transform="translate(21.000000, 48.000000) scale(1, -1) rotate(90.000000) translate(-21.000000, -48.000000) " x="18" y="45" width="6" height="6"></rect>
                    <rect id="Rectangle" transform="translate(12.000000, 48.000000) scale(1, -1) rotate(90.000000) translate(-12.000000, -48.000000) " x="9" y="45" width="6" height="6"></rect>
                    <rect id="Rectangle" transform="translate(3.000000, 48.000000) scale(1, -1) rotate(90.000000) translate(-3.000000, -48.000000) " x="0" y="45" width="6" height="6"></rect>
                    <rect id="Rectangle" transform="translate(30.000000, 48.000000) scale(1, -1) rotate(90.000000) translate(-30.000000, -48.000000) " x="27" y="45" width="6" height="6"></rect>
                    <rect id="Rectangle" transform="translate(21.000000, 39.000000) scale(1, -1) rotate(90.000000) translate(-21.000000, -39.000000) " x="18" y="36" width="6" height="6"></rect>
                    <rect id="Rectangle" transform="translate(12.000000, 39.000000) scale(1, -1) rotate(90.000000) translate(-12.000000, -39.000000) " x="9" y="36" width="6" height="6"></rect>
                    <rect id="Rectangle" transform="translate(3.000000, 39.000000) scale(1, -1) rotate(90.000000) translate(-3.000000, -39.000000) " x="0" y="36" width="6" height="6"></rect>
                    <rect id="Rectangle" transform="translate(30.000000, 39.000000) scale(1, -1) rotate(90.000000) translate(-30.000000, -39.000000) " x="27" y="36" width="6" height="6"></rect>
                    <rect id="Rectangle" transform="translate(21.000000, 30.000000) scale(1, -1) rotate(90.000000) translate(-21.000000, -30.000000) " x="18" y="27" width="6" height="6"></rect>
                    <rect id="Rectangle" transform="translate(3.000000, 30.000000) scale(1, -1) rotate(90.000000) translate(-3.000000, -30.000000) " x="0" y="27" width="6" height="6"></rect>
                    <rect id="Rectangle" transform="translate(12.000000, 30.000000) scale(1, -1) rotate(90.000000) translate(-12.000000, -30.000000) " x="9" y="27" width="6" height="6"></rect>
                    <rect id="Rectangle" transform="translate(30.000000, 30.000000) scale(1, -1) rotate(90.000000) translate(-30.000000, -30.000000) " x="27" y="27" width="6" height="6"></rect>
                    <rect id="Rectangle" transform="translate(39.000000, 48.000000) scale(1, -1) rotate(90.000000) translate(-39.000000, -48.000000) " x="36" y="45" width="6" height="6"></rect>
                    <rect id="Rectangle" transform="translate(39.000000, 39.000000) scale(1, -1) rotate(90.000000) translate(-39.000000, -39.000000) " x="36" y="36" width="6" height="6"></rect>
                    <rect id="Rectangle" transform="translate(39.000000, 30.000000) scale(1, -1) rotate(90.000000) translate(-39.000000, -30.000000) " x="36" y="27" width="6" height="6"></rect>
                    <rect id="Rectangle" transform="translate(21.000000, 21.000000) scale(1, -1) rotate(90.000000) translate(-21.000000, -21.000000) " x="18" y="18" width="6" height="6"></rect>
                    <rect id="Rectangle" transform="translate(12.000000, 21.000000) scale(1, -1) rotate(90.000000) translate(-12.000000, -21.000000) " x="9" y="18" width="6" height="6"></rect>
                    <rect id="Rectangle" transform="translate(3.000000, 21.000000) scale(1, -1) rotate(90.000000) translate(-3.000000, -21.000000) " x="0" y="18" width="6" height="6"></rect>
                    <rect id="Rectangle" transform="translate(30.000000, 21.000000) scale(1, -1) rotate(90.000000) translate(-30.000000, -21.000000) " x="27" y="18" width="6" height="6"></rect>
                    <rect id="Rectangle" transform="translate(21.000000, 12.000000) scale(1, -1) rotate(90.000000) translate(-21.000000, -12.000000) " x="18" y="9" width="6" height="6"></rect>
                    <rect id="Rectangle" transform="translate(12.000000, 12.000000) scale(1, -1) rotate(90.000000) translate(-12.000000, -12.000000) " x="9" y="9" width="6" height="6"></rect>
                    <rect id="Rectangle" transform="translate(3.000000, 12.000000) scale(1, -1) rotate(90.000000) translate(-3.000000, -12.000000) " x="0" y="9" width="6" height="6"></rect>
                    <rect id="Rectangle" transform="translate(30.000000, 12.000000) scale(1, -1) rotate(90.000000) translate(-30.000000, -12.000000) " x="27" y="9" width="6" height="6"></rect>
                    <rect id="Rectangle" transform="translate(21.000000, 3.000000) scale(1, -1) rotate(90.000000) translate(-21.000000, -3.000000) " x="18" y="0" width="6" height="6"></rect>
                    <rect id="Rectangle" transform="translate(3.000000, 3.000000) scale(1, -1) rotate(90.000000) translate(-3.000000, -3.000000) " x="0" y="0" width="6" height="6"></rect>
                    <rect id="Rectangle" transform="translate(12.000000, 3.000000) scale(1, -1) rotate(90.000000) translate(-12.000000, -3.000000) " x="9" y="0" width="6" height="6"></rect>
                    <rect id="Rectangle" transform="translate(30.000000, 3.000000) scale(1, -1) rotate(90.000000) translate(-30.000000, -3.000000) " x="27" y="0" width="6" height="6"></rect>
                    <rect id="Rectangle" transform="translate(39.000000, 21.000000) scale(1, -1) rotate(90.000000) translate(-39.000000, -21.000000) " x="36" y="18" width="6" height="6"></rect>
                    <rect id="Rectangle" transform="translate(39.000000, 12.000000) scale(1, -1) rotate(90.000000) translate(-39.000000, -12.000000) " x="36" y="9" width="6" height="6"></rect>
                    <rect id="Rectangle" transform="translate(39.000000, 3.000000) scale(1, -1) rotate(90.000000) translate(-39.000000, -3.000000) " x="36" y="0" width="6" height="6"></rect>
                </g>
                <g id="Group" transform="translate(25.500000, 43.500000) rotate(90.000000) translate(-25.500000, -43.500000) translate(-18.000000, 18.000000)">
                    <rect id="Rectangle" transform="translate(66.000000, 48.000000) scale(1, -1) rotate(90.000000) translate(-66.000000, -48.000000) " x="63" y="45" width="6" height="6"></rect>
                    <rect id="Rectangle" transform="translate(57.000000, 48.000000) scale(1, -1) rotate(90.000000) translate(-57.000000, -48.000000) " x="54" y="45" width="6" height="6"></rect>
                    <rect id="Rectangle" transform="translate(48.000000, 48.000000) scale(1, -1) rotate(90.000000) translate(-48.000000, -48.000000) " x="45" y="45" width="6" height="6"></rect>
                    <rect id="Rectangle" transform="translate(75.000000, 48.000000) scale(1, -1) rotate(90.000000) translate(-75.000000, -48.000000) " x="72" y="45" width="6" height="6"></rect>
                    <rect id="Rectangle" transform="translate(66.000000, 39.000000) scale(1, -1) rotate(90.000000) translate(-66.000000, -39.000000) " x="63" y="36" width="6" height="6"></rect>
                    <rect id="Rectangle" transform="translate(57.000000, 39.000000) scale(1, -1) rotate(90.000000) translate(-57.000000, -39.000000) " x="54" y="36" width="6" height="6"></rect>
                    <rect id="Rectangle" transform="translate(48.000000, 39.000000) scale(1, -1) rotate(90.000000) translate(-48.000000, -39.000000) " x="45" y="36" width="6" height="6"></rect>
                    <rect id="Rectangle" transform="translate(75.000000, 39.000000) scale(1, -1) rotate(90.000000) translate(-75.000000, -39.000000) " x="72" y="36" width="6" height="6"></rect>
                    <rect id="Rectangle" transform="translate(66.000000, 30.000000) scale(1, -1) rotate(90.000000) translate(-66.000000, -30.000000) " x="63" y="27" width="6" height="6"></rect>
                    <rect id="Rectangle" transform="translate(48.000000, 30.000000) scale(1, -1) rotate(90.000000) translate(-48.000000, -30.000000) " x="45" y="27" width="6" height="6"></rect>
                    <rect id="Rectangle" transform="translate(57.000000, 30.000000) scale(1, -1) rotate(90.000000) translate(-57.000000, -30.000000) " x="54" y="27" width="6" height="6"></rect>
                    <rect id="Rectangle" transform="translate(75.000000, 30.000000) scale(1, -1) rotate(90.000000) translate(-75.000000, -30.000000) " x="72" y="27" width="6" height="6"></rect>
                    <rect id="Rectangle" transform="translate(84.000000, 48.000000) scale(1, -1) rotate(90.000000) translate(-84.000000, -48.000000) " x="81" y="45" width="6" height="6"></rect>
                    <rect id="Rectangle" transform="translate(84.000000, 39.000000) scale(1, -1) rotate(90.000000) translate(-84.000000, -39.000000) " x="81" y="36" width="6" height="6"></rect>
                    <rect id="Rectangle" transform="translate(84.000000, 30.000000) scale(1, -1) rotate(90.000000) translate(-84.000000, -30.000000) " x="81" y="27" width="6" height="6"></rect>
                    <rect id="Rectangle" transform="translate(66.000000, 21.000000) scale(1, -1) rotate(90.000000) translate(-66.000000, -21.000000) " x="63" y="18" width="6" height="6"></rect>
                    <rect id="Rectangle" transform="translate(57.000000, 21.000000) scale(1, -1) rotate(90.000000) translate(-57.000000, -21.000000) " x="54" y="18" width="6" height="6"></rect>
                    <rect id="Rectangle" transform="translate(48.000000, 21.000000) scale(1, -1) rotate(90.000000) translate(-48.000000, -21.000000) " x="45" y="18" width="6" height="6"></rect>
                    <rect id="Rectangle" transform="translate(75.000000, 21.000000) scale(1, -1) rotate(90.000000) translate(-75.000000, -21.000000) " x="72" y="18" width="6" height="6"></rect>
                    <rect id="Rectangle" transform="translate(66.000000, 12.000000) scale(1, -1) rotate(90.000000) translate(-66.000000, -12.000000) " x="63" y="9" width="6" height="6"></rect>
                    <rect id="Rectangle" transform="translate(57.000000, 12.000000) scale(1, -1) rotate(90.000000) translate(-57.000000, -12.000000) " x="54" y="9" width="6" height="6"></rect>
                    <rect id="Rectangle" transform="translate(48.000000, 12.000000) scale(1, -1) rotate(90.000000) translate(-48.000000, -12.000000) " x="45" y="9" width="6" height="6"></rect>
                    <rect id="Rectangle" transform="translate(75.000000, 12.000000) scale(1, -1) rotate(90.000000) translate(-75.000000, -12.000000) " x="72" y="9" width="6" height="6"></rect>
                    <rect id="Rectangle" transform="translate(66.000000, 3.000000) scale(1, -1) rotate(90.000000) translate(-66.000000, -3.000000) " x="63" y="0" width="6" height="6"></rect>
                    <rect id="Rectangle" transform="translate(48.000000, 3.000000) scale(1, -1) rotate(90.000000) translate(-48.000000, -3.000000) " x="45" y="0" width="6" height="6"></rect>
                    <rect id="Rectangle" transform="translate(57.000000, 3.000000) scale(1, -1) rotate(90.000000) translate(-57.000000, -3.000000) " x="54" y="0" width="6" height="6"></rect>
                    <rect id="Rectangle" transform="translate(75.000000, 3.000000) scale(1, -1) rotate(90.000000) translate(-75.000000, -3.000000) " x="72" y="0" width="6" height="6"></rect>
                    <rect id="Rectangle" transform="translate(84.000000, 21.000000) scale(1, -1) rotate(90.000000) translate(-84.000000, -21.000000) " x="81" y="18" width="6" height="6"></rect>
                    <rect id="Rectangle" transform="translate(84.000000, 12.000000) scale(1, -1) rotate(90.000000) translate(-84.000000, -12.000000) " x="81" y="9" width="6" height="6"></rect>
                    <rect id="Rectangle" transform="translate(84.000000, 3.000000) scale(1, -1) rotate(90.000000) translate(-84.000000, -3.000000) " x="81" y="0" width="6" height="6"></rect>
                    <rect id="Rectangle" transform="translate(21.000000, 48.000000) scale(1, -1) rotate(90.000000) translate(-21.000000, -48.000000) " x="18" y="45" width="6" height="6"></rect>
                    <rect id="Rectangle" transform="translate(12.000000, 48.000000) scale(1, -1) rotate(90.000000) translate(-12.000000, -48.000000) " x="9" y="45" width="6" height="6"></rect>
                    <rect id="Rectangle" transform="translate(3.000000, 48.000000) scale(1, -1) rotate(90.000000) translate(-3.000000, -48.000000) " x="0" y="45" width="6" height="6"></rect>
                    <rect id="Rectangle" transform="translate(30.000000, 48.000000) scale(1, -1) rotate(90.000000) translate(-30.000000, -48.000000) " x="27" y="45" width="6" height="6"></rect>
                    <rect id="Rectangle" transform="translate(21.000000, 39.000000) scale(1, -1) rotate(90.000000) translate(-21.000000, -39.000000) " x="18" y="36" width="6" height="6"></rect>
                    <rect id="Rectangle" transform="translate(12.000000, 39.000000) scale(1, -1) rotate(90.000000) translate(-12.000000, -39.000000) " x="9" y="36" width="6" height="6"></rect>
                    <rect id="Rectangle" transform="translate(3.000000, 39.000000) scale(1, -1) rotate(90.000000) translate(-3.000000, -39.000000) " x="0" y="36" width="6" height="6"></rect>
                    <rect id="Rectangle" transform="translate(30.000000, 39.000000) scale(1, -1) rotate(90.000000) translate(-30.000000, -39.000000) " x="27" y="36" width="6" height="6"></rect>
                    <rect id="Rectangle" transform="translate(21.000000, 30.000000) scale(1, -1) rotate(90.000000) translate(-21.000000, -30.000000) " x="18" y="27" width="6" height="6"></rect>
                    <rect id="Rectangle" transform="translate(3.000000, 30.000000) scale(1, -1) rotate(90.000000) translate(-3.000000, -30.000000) " x="0" y="27" width="6" height="6"></rect>
                    <rect id="Rectangle" transform="translate(12.000000, 30.000000) scale(1, -1) rotate(90.000000) translate(-12.000000, -30.000000) " x="9" y="27" width="6" height="6"></rect>
                    <rect id="Rectangle" transform="translate(30.000000, 30.000000) scale(1, -1) rotate(90.000000) translate(-30.000000, -30.000000) " x="27" y="27" width="6" height="6"></rect>
                    <rect id="Rectangle" transform="translate(39.000000, 48.000000) scale(1, -1) rotate(90.000000) translate(-39.000000, -48.000000) " x="36" y="45" width="6" height="6"></rect>
                    <rect id="Rectangle" transform="translate(39.000000, 39.000000) scale(1, -1) rotate(90.000000) translate(-39.000000, -39.000000) " x="36" y="36" width="6" height="6"></rect>
                    <rect id="Rectangle" transform="translate(39.000000, 30.000000) scale(1, -1) rotate(90.000000) translate(-39.000000, -30.000000) " x="36" y="27" width="6" height="6"></rect>
                    <rect id="Rectangle" transform="translate(21.000000, 21.000000) scale(1, -1) rotate(90.000000) translate(-21.000000, -21.000000) " x="18" y="18" width="6" height="6"></rect>
                    <rect id="Rectangle" transform="translate(12.000000, 21.000000) scale(1, -1) rotate(90.000000) translate(-12.000000, -21.000000) " x="9" y="18" width="6" height="6"></rect>
                    <rect id="Rectangle" transform="translate(3.000000, 21.000000) scale(1, -1) rotate(90.000000) translate(-3.000000, -21.000000) " x="0" y="18" width="6" height="6"></rect>
                    <rect id="Rectangle" transform="translate(30.000000, 21.000000) scale(1, -1) rotate(90.000000) translate(-30.000000, -21.000000) " x="27" y="18" width="6" height="6"></rect>
                    <rect id="Rectangle" transform="translate(21.000000, 12.000000) scale(1, -1) rotate(90.000000) translate(-21.000000, -12.000000) " x="18" y="9" width="6" height="6"></rect>
                    <rect id="Rectangle" transform="translate(12.000000, 12.000000) scale(1, -1) rotate(90.000000) translate(-12.000000, -12.000000) " x="9" y="9" width="6" height="6"></rect>
                    <rect id="Rectangle" transform="translate(3.000000, 12.000000) scale(1, -1) rotate(90.000000) translate(-3.000000, -12.000000) " x="0" y="9" width="6" height="6"></rect>
                    <rect id="Rectangle" transform="translate(30.000000, 12.000000) scale(1, -1) rotate(90.000000) translate(-30.000000, -12.000000) " x="27" y="9" width="6" height="6"></rect>
                    <rect id="Rectangle" transform="translate(21.000000, 3.000000) scale(1, -1) rotate(90.000000) translate(-21.000000, -3.000000) " x="18" y="0" width="6" height="6"></rect>
                    <rect id="Rectangle" transform="translate(3.000000, 3.000000) scale(1, -1) rotate(90.000000) translate(-3.000000, -3.000000) " x="0" y="0" width="6" height="6"></rect>
                    <rect id="Rectangle" transform="translate(12.000000, 3.000000) scale(1, -1) rotate(90.000000) translate(-12.000000, -3.000000) " x="9" y="0" width="6" height="6"></rect>
                    <rect id="Rectangle" transform="translate(30.000000, 3.000000) scale(1, -1) rotate(90.000000) translate(-30.000000, -3.000000) " x="27" y="0" width="6" height="6"></rect>
                    <rect id="Rectangle" transform="translate(39.000000, 21.000000) scale(1, -1) rotate(90.000000) translate(-39.000000, -21.000000) " x="36" y="18" width="6" height="6"></rect>
                    <rect id="Rectangle" transform="translate(39.000000, 12.000000) scale(1, -1) rotate(90.000000) translate(-39.000000, -12.000000) " x="36" y="9" width="6" height="6"></rect>
                    <rect id="Rectangle" transform="translate(39.000000, 3.000000) scale(1, -1) rotate(90.000000) translate(-39.000000, -3.000000) " x="36" y="0" width="6" height="6"></rect>
                </g>
            </g>
        </g>
    </g>
</svg>