<?xml version="1.0" encoding="UTF-8"?>
<svg width="213px" height="87px" viewBox="0 0 213 87" version="1.1" xmlns="http://www.w3.org/2000/svg" xmlns:xlink="http://www.w3.org/1999/xlink">
    <title>Group 2</title>
    <g id="Page-1" stroke="none" stroke-width="1" fill="none" fill-rule="evenodd" opacity="0.63797433">
        <g id="About" transform="translate(-106.000000, -189.000000)" fill="#8C93A8">
            <g id="Group-2" transform="translate(212.500000, 232.500000) rotate(90.000000) translate(-212.500000, -232.500000) translate(169.000000, 126.000000)">
                <rect id="Rectangle" transform="translate(66.000000, 156.000000) scale(1, -1) rotate(90.000000) translate(-66.000000, -156.000000) " x="63" y="153" width="6" height="6"></rect>
                <rect id="Rectangle" transform="translate(57.000000, 156.000000) scale(1, -1) rotate(90.000000) translate(-57.000000, -156.000000) " x="54" y="153" width="6" height="6"></rect>
                <rect id="Rectangle" transform="translate(48.000000, 156.000000) scale(1, -1) rotate(90.000000) translate(-48.000000, -156.000000) " x="45" y="153" width="6" height="6"></rect>
                <rect id="Rectangle" transform="translate(75.000000, 156.000000) scale(1, -1) rotate(90.000000) translate(-75.000000, -156.000000) " x="72" y="153" width="6" height="6"></rect>
                <rect id="Rectangle" transform="translate(66.000000, 147.000000) scale(1, -1) rotate(90.000000) translate(-66.000000, -147.000000) " x="63" y="144" width="6" height="6"></rect>
                <rect id="Rectangle" transform="translate(57.000000, 147.000000) scale(1, -1) rotate(90.000000) translate(-57.000000, -147.000000) " x="54" y="144" width="6" height="6"></rect>
                <rect id="Rectangle" transform="translate(48.000000, 147.000000) scale(1, -1) rotate(90.000000) translate(-48.000000, -147.000000) " x="45" y="144" width="6" height="6"></rect>
                <rect id="Rectangle" transform="translate(75.000000, 147.000000) scale(1, -1) rotate(90.000000) translate(-75.000000, -147.000000) " x="72" y="144" width="6" height="6"></rect>
                <rect id="Rectangle" transform="translate(66.000000, 138.000000) scale(1, -1) rotate(90.000000) translate(-66.000000, -138.000000) " x="63" y="135" width="6" height="6"></rect>
                <rect id="Rectangle" transform="translate(48.000000, 138.000000) scale(1, -1) rotate(90.000000) translate(-48.000000, -138.000000) " x="45" y="135" width="6" height="6"></rect>
                <rect id="Rectangle" transform="translate(57.000000, 138.000000) scale(1, -1) rotate(90.000000) translate(-57.000000, -138.000000) " x="54" y="135" width="6" height="6"></rect>
                <rect id="Rectangle" transform="translate(75.000000, 138.000000) scale(1, -1) rotate(90.000000) translate(-75.000000, -138.000000) " x="72" y="135" width="6" height="6"></rect>
                <rect id="Rectangle" transform="translate(84.000000, 156.000000) scale(1, -1) rotate(90.000000) translate(-84.000000, -156.000000) " x="81" y="153" width="6" height="6"></rect>
                <rect id="Rectangle" transform="translate(84.000000, 147.000000) scale(1, -1) rotate(90.000000) translate(-84.000000, -147.000000) " x="81" y="144" width="6" height="6"></rect>
                <rect id="Rectangle" transform="translate(84.000000, 138.000000) scale(1, -1) rotate(90.000000) translate(-84.000000, -138.000000) " x="81" y="135" width="6" height="6"></rect>
                <rect id="Rectangle" transform="translate(66.000000, 129.000000) scale(1, -1) rotate(90.000000) translate(-66.000000, -129.000000) " x="63" y="126" width="6" height="6"></rect>
                <rect id="Rectangle" transform="translate(57.000000, 129.000000) scale(1, -1) rotate(90.000000) translate(-57.000000, -129.000000) " x="54" y="126" width="6" height="6"></rect>
                <rect id="Rectangle" transform="translate(48.000000, 129.000000) scale(1, -1) rotate(90.000000) translate(-48.000000, -129.000000) " x="45" y="126" width="6" height="6"></rect>
                <rect id="Rectangle" transform="translate(75.000000, 129.000000) scale(1, -1) rotate(90.000000) translate(-75.000000, -129.000000) " x="72" y="126" width="6" height="6"></rect>
                <rect id="Rectangle" transform="translate(66.000000, 120.000000) scale(1, -1) rotate(90.000000) translate(-66.000000, -120.000000) " x="63" y="117" width="6" height="6"></rect>
                <rect id="Rectangle" transform="translate(57.000000, 120.000000) scale(1, -1) rotate(90.000000) translate(-57.000000, -120.000000) " x="54" y="117" width="6" height="6"></rect>
                <rect id="Rectangle" transform="translate(48.000000, 120.000000) scale(1, -1) rotate(90.000000) translate(-48.000000, -120.000000) " x="45" y="117" width="6" height="6"></rect>
                <rect id="Rectangle" transform="translate(75.000000, 120.000000) scale(1, -1) rotate(90.000000) translate(-75.000000, -120.000000) " x="72" y="117" width="6" height="6"></rect>
                <rect id="Rectangle" transform="translate(66.000000, 111.000000) scale(1, -1) rotate(90.000000) translate(-66.000000, -111.000000) " x="63" y="108" width="6" height="6"></rect>
                <rect id="Rectangle" transform="translate(48.000000, 111.000000) scale(1, -1) rotate(90.000000) translate(-48.000000, -111.000000) " x="45" y="108" width="6" height="6"></rect>
                <rect id="Rectangle" transform="translate(57.000000, 111.000000) scale(1, -1) rotate(90.000000) translate(-57.000000, -111.000000) " x="54" y="108" width="6" height="6"></rect>
                <rect id="Rectangle" transform="translate(75.000000, 111.000000) scale(1, -1) rotate(90.000000) translate(-75.000000, -111.000000) " x="72" y="108" width="6" height="6"></rect>
                <rect id="Rectangle" transform="translate(84.000000, 129.000000) scale(1, -1) rotate(90.000000) translate(-84.000000, -129.000000) " x="81" y="126" width="6" height="6"></rect>
                <rect id="Rectangle" transform="translate(84.000000, 120.000000) scale(1, -1) rotate(90.000000) translate(-84.000000, -120.000000) " x="81" y="117" width="6" height="6"></rect>
                <rect id="Rectangle" transform="translate(84.000000, 111.000000) scale(1, -1) rotate(90.000000) translate(-84.000000, -111.000000) " x="81" y="108" width="6" height="6"></rect>
                <rect id="Rectangle" transform="translate(21.000000, 156.000000) scale(1, -1) rotate(90.000000) translate(-21.000000, -156.000000) " x="18" y="153" width="6" height="6"></rect>
                <rect id="Rectangle" transform="translate(12.000000, 156.000000) scale(1, -1) rotate(90.000000) translate(-12.000000, -156.000000) " x="9" y="153" width="6" height="6"></rect>
                <rect id="Rectangle" transform="translate(3.000000, 156.000000) scale(1, -1) rotate(90.000000) translate(-3.000000, -156.000000) " x="0" y="153" width="6" height="6"></rect>
                <rect id="Rectangle" transform="translate(30.000000, 156.000000) scale(1, -1) rotate(90.000000) translate(-30.000000, -156.000000) " x="27" y="153" width="6" height="6"></rect>
                <rect id="Rectangle" transform="translate(21.000000, 147.000000) scale(1, -1) rotate(90.000000) translate(-21.000000, -147.000000) " x="18" y="144" width="6" height="6"></rect>
                <rect id="Rectangle" transform="translate(12.000000, 147.000000) scale(1, -1) rotate(90.000000) translate(-12.000000, -147.000000) " x="9" y="144" width="6" height="6"></rect>
                <rect id="Rectangle" transform="translate(3.000000, 147.000000) scale(1, -1) rotate(90.000000) translate(-3.000000, -147.000000) " x="0" y="144" width="6" height="6"></rect>
                <rect id="Rectangle" transform="translate(30.000000, 147.000000) scale(1, -1) rotate(90.000000) translate(-30.000000, -147.000000) " x="27" y="144" width="6" height="6"></rect>
                <rect id="Rectangle" transform="translate(21.000000, 138.000000) scale(1, -1) rotate(90.000000) translate(-21.000000, -138.000000) " x="18" y="135" width="6" height="6"></rect>
                <rect id="Rectangle" transform="translate(3.000000, 138.000000) scale(1, -1) rotate(90.000000) translate(-3.000000, -138.000000) " x="0" y="135" width="6" height="6"></rect>
                <rect id="Rectangle" transform="translate(12.000000, 138.000000) scale(1, -1) rotate(90.000000) translate(-12.000000, -138.000000) " x="9" y="135" width="6" height="6"></rect>
                <rect id="Rectangle" transform="translate(30.000000, 138.000000) scale(1, -1) rotate(90.000000) translate(-30.000000, -138.000000) " x="27" y="135" width="6" height="6"></rect>
                <rect id="Rectangle" transform="translate(39.000000, 156.000000) scale(1, -1) rotate(90.000000) translate(-39.000000, -156.000000) " x="36" y="153" width="6" height="6"></rect>
                <rect id="Rectangle" transform="translate(39.000000, 147.000000) scale(1, -1) rotate(90.000000) translate(-39.000000, -147.000000) " x="36" y="144" width="6" height="6"></rect>
                <rect id="Rectangle" transform="translate(39.000000, 138.000000) scale(1, -1) rotate(90.000000) translate(-39.000000, -138.000000) " x="36" y="135" width="6" height="6"></rect>
                <rect id="Rectangle" transform="translate(21.000000, 129.000000) scale(1, -1) rotate(90.000000) translate(-21.000000, -129.000000) " x="18" y="126" width="6" height="6"></rect>
                <rect id="Rectangle" transform="translate(12.000000, 129.000000) scale(1, -1) rotate(90.000000) translate(-12.000000, -129.000000) " x="9" y="126" width="6" height="6"></rect>
                <rect id="Rectangle" transform="translate(3.000000, 129.000000) scale(1, -1) rotate(90.000000) translate(-3.000000, -129.000000) " x="0" y="126" width="6" height="6"></rect>
                <rect id="Rectangle" transform="translate(30.000000, 129.000000) scale(1, -1) rotate(90.000000) translate(-30.000000, -129.000000) " x="27" y="126" width="6" height="6"></rect>
                <rect id="Rectangle" transform="translate(21.000000, 120.000000) scale(1, -1) rotate(90.000000) translate(-21.000000, -120.000000) " x="18" y="117" width="6" height="6"></rect>
                <rect id="Rectangle" transform="translate(12.000000, 120.000000) scale(1, -1) rotate(90.000000) translate(-12.000000, -120.000000) " x="9" y="117" width="6" height="6"></rect>
                <rect id="Rectangle" transform="translate(3.000000, 120.000000) scale(1, -1) rotate(90.000000) translate(-3.000000, -120.000000) " x="0" y="117" width="6" height="6"></rect>
                <rect id="Rectangle" transform="translate(30.000000, 120.000000) scale(1, -1) rotate(90.000000) translate(-30.000000, -120.000000) " x="27" y="117" width="6" height="6"></rect>
                <rect id="Rectangle" transform="translate(21.000000, 111.000000) scale(1, -1) rotate(90.000000) translate(-21.000000, -111.000000) " x="18" y="108" width="6" height="6"></rect>
                <rect id="Rectangle" transform="translate(3.000000, 111.000000) scale(1, -1) rotate(90.000000) translate(-3.000000, -111.000000) " x="0" y="108" width="6" height="6"></rect>
                <rect id="Rectangle" transform="translate(12.000000, 111.000000) scale(1, -1) rotate(90.000000) translate(-12.000000, -111.000000) " x="9" y="108" width="6" height="6"></rect>
                <rect id="Rectangle" transform="translate(30.000000, 111.000000) scale(1, -1) rotate(90.000000) translate(-30.000000, -111.000000) " x="27" y="108" width="6" height="6"></rect>
                <rect id="Rectangle" transform="translate(39.000000, 129.000000) scale(1, -1) rotate(90.000000) translate(-39.000000, -129.000000) " x="36" y="126" width="6" height="6"></rect>
                <rect id="Rectangle" transform="translate(39.000000, 120.000000) scale(1, -1) rotate(90.000000) translate(-39.000000, -120.000000) " x="36" y="117" width="6" height="6"></rect>
                <rect id="Rectangle" transform="translate(39.000000, 111.000000) scale(1, -1) rotate(90.000000) translate(-39.000000, -111.000000) " x="36" y="108" width="6" height="6"></rect>
                <rect id="Rectangle" transform="translate(66.000000, 210.000000) scale(1, -1) rotate(90.000000) translate(-66.000000, -210.000000) " x="63" y="207" width="6" height="6"></rect>
                <rect id="Rectangle" transform="translate(57.000000, 210.000000) scale(1, -1) rotate(90.000000) translate(-57.000000, -210.000000) " x="54" y="207" width="6" height="6"></rect>
                <rect id="Rectangle" transform="translate(48.000000, 210.000000) scale(1, -1) rotate(90.000000) translate(-48.000000, -210.000000) " x="45" y="207" width="6" height="6"></rect>
                <rect id="Rectangle" transform="translate(75.000000, 210.000000) scale(1, -1) rotate(90.000000) translate(-75.000000, -210.000000) " x="72" y="207" width="6" height="6"></rect>
                <rect id="Rectangle" transform="translate(66.000000, 201.000000) scale(1, -1) rotate(90.000000) translate(-66.000000, -201.000000) " x="63" y="198" width="6" height="6"></rect>
                <rect id="Rectangle" transform="translate(57.000000, 201.000000) scale(1, -1) rotate(90.000000) translate(-57.000000, -201.000000) " x="54" y="198" width="6" height="6"></rect>
                <rect id="Rectangle" transform="translate(48.000000, 201.000000) scale(1, -1) rotate(90.000000) translate(-48.000000, -201.000000) " x="45" y="198" width="6" height="6"></rect>
                <rect id="Rectangle" transform="translate(75.000000, 201.000000) scale(1, -1) rotate(90.000000) translate(-75.000000, -201.000000) " x="72" y="198" width="6" height="6"></rect>
                <rect id="Rectangle" transform="translate(66.000000, 192.000000) scale(1, -1) rotate(90.000000) translate(-66.000000, -192.000000) " x="63" y="189" width="6" height="6"></rect>
                <rect id="Rectangle" transform="translate(48.000000, 192.000000) scale(1, -1) rotate(90.000000) translate(-48.000000, -192.000000) " x="45" y="189" width="6" height="6"></rect>
                <rect id="Rectangle" transform="translate(57.000000, 192.000000) scale(1, -1) rotate(90.000000) translate(-57.000000, -192.000000) " x="54" y="189" width="6" height="6"></rect>
                <rect id="Rectangle" transform="translate(75.000000, 192.000000) scale(1, -1) rotate(90.000000) translate(-75.000000, -192.000000) " x="72" y="189" width="6" height="6"></rect>
                <rect id="Rectangle" transform="translate(84.000000, 210.000000) scale(1, -1) rotate(90.000000) translate(-84.000000, -210.000000) " x="81" y="207" width="6" height="6"></rect>
                <rect id="Rectangle" transform="translate(84.000000, 201.000000) scale(1, -1) rotate(90.000000) translate(-84.000000, -201.000000) " x="81" y="198" width="6" height="6"></rect>
                <rect id="Rectangle" transform="translate(84.000000, 192.000000) scale(1, -1) rotate(90.000000) translate(-84.000000, -192.000000) " x="81" y="189" width="6" height="6"></rect>
                <rect id="Rectangle" transform="translate(66.000000, 183.000000) scale(1, -1) rotate(90.000000) translate(-66.000000, -183.000000) " x="63" y="180" width="6" height="6"></rect>
                <rect id="Rectangle" transform="translate(57.000000, 183.000000) scale(1, -1) rotate(90.000000) translate(-57.000000, -183.000000) " x="54" y="180" width="6" height="6"></rect>
                <rect id="Rectangle" transform="translate(48.000000, 183.000000) scale(1, -1) rotate(90.000000) translate(-48.000000, -183.000000) " x="45" y="180" width="6" height="6"></rect>
                <rect id="Rectangle" transform="translate(75.000000, 183.000000) scale(1, -1) rotate(90.000000) translate(-75.000000, -183.000000) " x="72" y="180" width="6" height="6"></rect>
                <rect id="Rectangle" transform="translate(66.000000, 174.000000) scale(1, -1) rotate(90.000000) translate(-66.000000, -174.000000) " x="63" y="171" width="6" height="6"></rect>
                <rect id="Rectangle" transform="translate(57.000000, 174.000000) scale(1, -1) rotate(90.000000) translate(-57.000000, -174.000000) " x="54" y="171" width="6" height="6"></rect>
                <rect id="Rectangle" transform="translate(48.000000, 174.000000) scale(1, -1) rotate(90.000000) translate(-48.000000, -174.000000) " x="45" y="171" width="6" height="6"></rect>
                <rect id="Rectangle" transform="translate(75.000000, 174.000000) scale(1, -1) rotate(90.000000) translate(-75.000000, -174.000000) " x="72" y="171" width="6" height="6"></rect>
                <rect id="Rectangle" transform="translate(66.000000, 165.000000) scale(1, -1) rotate(90.000000) translate(-66.000000, -165.000000) " x="63" y="162" width="6" height="6"></rect>
                <rect id="Rectangle" transform="translate(48.000000, 165.000000) scale(1, -1) rotate(90.000000) translate(-48.000000, -165.000000) " x="45" y="162" width="6" height="6"></rect>
                <rect id="Rectangle" transform="translate(57.000000, 165.000000) scale(1, -1) rotate(90.000000) translate(-57.000000, -165.000000) " x="54" y="162" width="6" height="6"></rect>
                <rect id="Rectangle" transform="translate(75.000000, 165.000000) scale(1, -1) rotate(90.000000) translate(-75.000000, -165.000000) " x="72" y="162" width="6" height="6"></rect>
                <rect id="Rectangle" transform="translate(84.000000, 183.000000) scale(1, -1) rotate(90.000000) translate(-84.000000, -183.000000) " x="81" y="180" width="6" height="6"></rect>
                <rect id="Rectangle" transform="translate(84.000000, 174.000000) scale(1, -1) rotate(90.000000) translate(-84.000000, -174.000000) " x="81" y="171" width="6" height="6"></rect>
                <rect id="Rectangle" transform="translate(84.000000, 165.000000) scale(1, -1) rotate(90.000000) translate(-84.000000, -165.000000) " x="81" y="162" width="6" height="6"></rect>
                <rect id="Rectangle" transform="translate(21.000000, 210.000000) scale(1, -1) rotate(90.000000) translate(-21.000000, -210.000000) " x="18" y="207" width="6" height="6"></rect>
                <rect id="Rectangle" transform="translate(12.000000, 210.000000) scale(1, -1) rotate(90.000000) translate(-12.000000, -210.000000) " x="9" y="207" width="6" height="6"></rect>
                <rect id="Rectangle" transform="translate(3.000000, 210.000000) scale(1, -1) rotate(90.000000) translate(-3.000000, -210.000000) " x="0" y="207" width="6" height="6"></rect>
                <rect id="Rectangle" transform="translate(30.000000, 210.000000) scale(1, -1) rotate(90.000000) translate(-30.000000, -210.000000) " x="27" y="207" width="6" height="6"></rect>
                <rect id="Rectangle" transform="translate(21.000000, 201.000000) scale(1, -1) rotate(90.000000) translate(-21.000000, -201.000000) " x="18" y="198" width="6" height="6"></rect>
                <rect id="Rectangle" transform="translate(12.000000, 201.000000) scale(1, -1) rotate(90.000000) translate(-12.000000, -201.000000) " x="9" y="198" width="6" height="6"></rect>
                <rect id="Rectangle" transform="translate(3.000000, 201.000000) scale(1, -1) rotate(90.000000) translate(-3.000000, -201.000000) " x="0" y="198" width="6" height="6"></rect>
                <rect id="Rectangle" transform="translate(30.000000, 201.000000) scale(1, -1) rotate(90.000000) translate(-30.000000, -201.000000) " x="27" y="198" width="6" height="6"></rect>
                <rect id="Rectangle" transform="translate(21.000000, 192.000000) scale(1, -1) rotate(90.000000) translate(-21.000000, -192.000000) " x="18" y="189" width="6" height="6"></rect>
                <rect id="Rectangle" transform="translate(3.000000, 192.000000) scale(1, -1) rotate(90.000000) translate(-3.000000, -192.000000) " x="0" y="189" width="6" height="6"></rect>
                <rect id="Rectangle" transform="translate(12.000000, 192.000000) scale(1, -1) rotate(90.000000) translate(-12.000000, -192.000000) " x="9" y="189" width="6" height="6"></rect>
                <rect id="Rectangle" transform="translate(30.000000, 192.000000) scale(1, -1) rotate(90.000000) translate(-30.000000, -192.000000) " x="27" y="189" width="6" height="6"></rect>
                <rect id="Rectangle" transform="translate(39.000000, 210.000000) scale(1, -1) rotate(90.000000) translate(-39.000000, -210.000000) " x="36" y="207" width="6" height="6"></rect>
                <rect id="Rectangle" transform="translate(39.000000, 201.000000) scale(1, -1) rotate(90.000000) translate(-39.000000, -201.000000) " x="36" y="198" width="6" height="6"></rect>
                <rect id="Rectangle" transform="translate(39.000000, 192.000000) scale(1, -1) rotate(90.000000) translate(-39.000000, -192.000000) " x="36" y="189" width="6" height="6"></rect>
                <rect id="Rectangle" transform="translate(21.000000, 183.000000) scale(1, -1) rotate(90.000000) translate(-21.000000, -183.000000) " x="18" y="180" width="6" height="6"></rect>
                <rect id="Rectangle" transform="translate(12.000000, 183.000000) scale(1, -1) rotate(90.000000) translate(-12.000000, -183.000000) " x="9" y="180" width="6" height="6"></rect>
                <rect id="Rectangle" transform="translate(3.000000, 183.000000) scale(1, -1) rotate(90.000000) translate(-3.000000, -183.000000) " x="0" y="180" width="6" height="6"></rect>
                <rect id="Rectangle" transform="translate(30.000000, 183.000000) scale(1, -1) rotate(90.000000) translate(-30.000000, -183.000000) " x="27" y="180" width="6" height="6"></rect>
                <rect id="Rectangle" transform="translate(21.000000, 174.000000) scale(1, -1) rotate(90.000000) translate(-21.000000, -174.000000) " x="18" y="171" width="6" height="6"></rect>
                <rect id="Rectangle" transform="translate(12.000000, 174.000000) scale(1, -1) rotate(90.000000) translate(-12.000000, -174.000000) " x="9" y="171" width="6" height="6"></rect>
                <rect id="Rectangle" transform="translate(3.000000, 174.000000) scale(1, -1) rotate(90.000000) translate(-3.000000, -174.000000) " x="0" y="171" width="6" height="6"></rect>
                <rect id="Rectangle" transform="translate(30.000000, 174.000000) scale(1, -1) rotate(90.000000) translate(-30.000000, -174.000000) " x="27" y="171" width="6" height="6"></rect>
                <rect id="Rectangle" transform="translate(21.000000, 165.000000) scale(1, -1) rotate(90.000000) translate(-21.000000, -165.000000) " x="18" y="162" width="6" height="6"></rect>
                <rect id="Rectangle" transform="translate(3.000000, 165.000000) scale(1, -1) rotate(90.000000) translate(-3.000000, -165.000000) " x="0" y="162" width="6" height="6"></rect>
                <rect id="Rectangle" transform="translate(12.000000, 165.000000) scale(1, -1) rotate(90.000000) translate(-12.000000, -165.000000) " x="9" y="162" width="6" height="6"></rect>
                <rect id="Rectangle" transform="translate(30.000000, 165.000000) scale(1, -1) rotate(90.000000) translate(-30.000000, -165.000000) " x="27" y="162" width="6" height="6"></rect>
                <rect id="Rectangle" transform="translate(39.000000, 183.000000) scale(1, -1) rotate(90.000000) translate(-39.000000, -183.000000) " x="36" y="180" width="6" height="6"></rect>
                <rect id="Rectangle" transform="translate(39.000000, 174.000000) scale(1, -1) rotate(90.000000) translate(-39.000000, -174.000000) " x="36" y="171" width="6" height="6"></rect>
                <rect id="Rectangle" transform="translate(39.000000, 165.000000) scale(1, -1) rotate(90.000000) translate(-39.000000, -165.000000) " x="36" y="162" width="6" height="6"></rect>
                <rect id="Rectangle" transform="translate(66.000000, 48.000000) scale(1, -1) rotate(90.000000) translate(-66.000000, -48.000000) " x="63" y="45" width="6" height="6"></rect>
                <rect id="Rectangle" transform="translate(57.000000, 48.000000) scale(1, -1) rotate(90.000000) translate(-57.000000, -48.000000) " x="54" y="45" width="6" height="6"></rect>
                <rect id="Rectangle" transform="translate(48.000000, 48.000000) scale(1, -1) rotate(90.000000) translate(-48.000000, -48.000000) " x="45" y="45" width="6" height="6"></rect>
                <rect id="Rectangle" transform="translate(75.000000, 48.000000) scale(1, -1) rotate(90.000000) translate(-75.000000, -48.000000) " x="72" y="45" width="6" height="6"></rect>
                <rect id="Rectangle" transform="translate(66.000000, 39.000000) scale(1, -1) rotate(90.000000) translate(-66.000000, -39.000000) " x="63" y="36" width="6" height="6"></rect>
                <rect id="Rectangle" transform="translate(57.000000, 39.000000) scale(1, -1) rotate(90.000000) translate(-57.000000, -39.000000) " x="54" y="36" width="6" height="6"></rect>
                <rect id="Rectangle" transform="translate(48.000000, 39.000000) scale(1, -1) rotate(90.000000) translate(-48.000000, -39.000000) " x="45" y="36" width="6" height="6"></rect>
                <rect id="Rectangle" transform="translate(75.000000, 39.000000) scale(1, -1) rotate(90.000000) translate(-75.000000, -39.000000) " x="72" y="36" width="6" height="6"></rect>
                <rect id="Rectangle" transform="translate(66.000000, 30.000000) scale(1, -1) rotate(90.000000) translate(-66.000000, -30.000000) " x="63" y="27" width="6" height="6"></rect>
                <rect id="Rectangle" transform="translate(48.000000, 30.000000) scale(1, -1) rotate(90.000000) translate(-48.000000, -30.000000) " x="45" y="27" width="6" height="6"></rect>
                <rect id="Rectangle" transform="translate(57.000000, 30.000000) scale(1, -1) rotate(90.000000) translate(-57.000000, -30.000000) " x="54" y="27" width="6" height="6"></rect>
                <rect id="Rectangle" transform="translate(75.000000, 30.000000) scale(1, -1) rotate(90.000000) translate(-75.000000, -30.000000) " x="72" y="27" width="6" height="6"></rect>
                <rect id="Rectangle" transform="translate(84.000000, 48.000000) scale(1, -1) rotate(90.000000) translate(-84.000000, -48.000000) " x="81" y="45" width="6" height="6"></rect>
                <rect id="Rectangle" transform="translate(84.000000, 39.000000) scale(1, -1) rotate(90.000000) translate(-84.000000, -39.000000) " x="81" y="36" width="6" height="6"></rect>
                <rect id="Rectangle" transform="translate(84.000000, 30.000000) scale(1, -1) rotate(90.000000) translate(-84.000000, -30.000000) " x="81" y="27" width="6" height="6"></rect>
                <rect id="Rectangle" transform="translate(66.000000, 21.000000) scale(1, -1) rotate(90.000000) translate(-66.000000, -21.000000) " x="63" y="18" width="6" height="6"></rect>
                <rect id="Rectangle" transform="translate(57.000000, 21.000000) scale(1, -1) rotate(90.000000) translate(-57.000000, -21.000000) " x="54" y="18" width="6" height="6"></rect>
                <rect id="Rectangle" transform="translate(48.000000, 21.000000) scale(1, -1) rotate(90.000000) translate(-48.000000, -21.000000) " x="45" y="18" width="6" height="6"></rect>
                <rect id="Rectangle" transform="translate(75.000000, 21.000000) scale(1, -1) rotate(90.000000) translate(-75.000000, -21.000000) " x="72" y="18" width="6" height="6"></rect>
                <rect id="Rectangle" transform="translate(66.000000, 12.000000) scale(1, -1) rotate(90.000000) translate(-66.000000, -12.000000) " x="63" y="9" width="6" height="6"></rect>
                <rect id="Rectangle" transform="translate(57.000000, 12.000000) scale(1, -1) rotate(90.000000) translate(-57.000000, -12.000000) " x="54" y="9" width="6" height="6"></rect>
                <rect id="Rectangle" transform="translate(48.000000, 12.000000) scale(1, -1) rotate(90.000000) translate(-48.000000, -12.000000) " x="45" y="9" width="6" height="6"></rect>
                <rect id="Rectangle" transform="translate(75.000000, 12.000000) scale(1, -1) rotate(90.000000) translate(-75.000000, -12.000000) " x="72" y="9" width="6" height="6"></rect>
                <rect id="Rectangle" transform="translate(66.000000, 3.000000) scale(1, -1) rotate(90.000000) translate(-66.000000, -3.000000) " x="63" y="0" width="6" height="6"></rect>
                <rect id="Rectangle" transform="translate(48.000000, 3.000000) scale(1, -1) rotate(90.000000) translate(-48.000000, -3.000000) " x="45" y="0" width="6" height="6"></rect>
                <rect id="Rectangle" transform="translate(57.000000, 3.000000) scale(1, -1) rotate(90.000000) translate(-57.000000, -3.000000) " x="54" y="0" width="6" height="6"></rect>
                <rect id="Rectangle" transform="translate(75.000000, 3.000000) scale(1, -1) rotate(90.000000) translate(-75.000000, -3.000000) " x="72" y="0" width="6" height="6"></rect>
                <rect id="Rectangle" transform="translate(84.000000, 21.000000) scale(1, -1) rotate(90.000000) translate(-84.000000, -21.000000) " x="81" y="18" width="6" height="6"></rect>
                <rect id="Rectangle" transform="translate(84.000000, 12.000000) scale(1, -1) rotate(90.000000) translate(-84.000000, -12.000000) " x="81" y="9" width="6" height="6"></rect>
                <rect id="Rectangle" transform="translate(84.000000, 3.000000) scale(1, -1) rotate(90.000000) translate(-84.000000, -3.000000) " x="81" y="0" width="6" height="6"></rect>
                <rect id="Rectangle" transform="translate(21.000000, 48.000000) scale(1, -1) rotate(90.000000) translate(-21.000000, -48.000000) " x="18" y="45" width="6" height="6"></rect>
                <rect id="Rectangle" transform="translate(12.000000, 48.000000) scale(1, -1) rotate(90.000000) translate(-12.000000, -48.000000) " x="9" y="45" width="6" height="6"></rect>
                <rect id="Rectangle" transform="translate(3.000000, 48.000000) scale(1, -1) rotate(90.000000) translate(-3.000000, -48.000000) " x="0" y="45" width="6" height="6"></rect>
                <rect id="Rectangle" transform="translate(30.000000, 48.000000) scale(1, -1) rotate(90.000000) translate(-30.000000, -48.000000) " x="27" y="45" width="6" height="6"></rect>
                <rect id="Rectangle" transform="translate(21.000000, 39.000000) scale(1, -1) rotate(90.000000) translate(-21.000000, -39.000000) " x="18" y="36" width="6" height="6"></rect>
                <rect id="Rectangle" transform="translate(12.000000, 39.000000) scale(1, -1) rotate(90.000000) translate(-12.000000, -39.000000) " x="9" y="36" width="6" height="6"></rect>
                <rect id="Rectangle" transform="translate(3.000000, 39.000000) scale(1, -1) rotate(90.000000) translate(-3.000000, -39.000000) " x="0" y="36" width="6" height="6"></rect>
                <rect id="Rectangle" transform="translate(30.000000, 39.000000) scale(1, -1) rotate(90.000000) translate(-30.000000, -39.000000) " x="27" y="36" width="6" height="6"></rect>
                <rect id="Rectangle" transform="translate(21.000000, 30.000000) scale(1, -1) rotate(90.000000) translate(-21.000000, -30.000000) " x="18" y="27" width="6" height="6"></rect>
                <rect id="Rectangle" transform="translate(3.000000, 30.000000) scale(1, -1) rotate(90.000000) translate(-3.000000, -30.000000) " x="0" y="27" width="6" height="6"></rect>
                <rect id="Rectangle" transform="translate(12.000000, 30.000000) scale(1, -1) rotate(90.000000) translate(-12.000000, -30.000000) " x="9" y="27" width="6" height="6"></rect>
                <rect id="Rectangle" transform="translate(30.000000, 30.000000) scale(1, -1) rotate(90.000000) translate(-30.000000, -30.000000) " x="27" y="27" width="6" height="6"></rect>
                <rect id="Rectangle" transform="translate(39.000000, 48.000000) scale(1, -1) rotate(90.000000) translate(-39.000000, -48.000000) " x="36" y="45" width="6" height="6"></rect>
                <rect id="Rectangle" transform="translate(39.000000, 39.000000) scale(1, -1) rotate(90.000000) translate(-39.000000, -39.000000) " x="36" y="36" width="6" height="6"></rect>
                <rect id="Rectangle" transform="translate(39.000000, 30.000000) scale(1, -1) rotate(90.000000) translate(-39.000000, -30.000000) " x="36" y="27" width="6" height="6"></rect>
                <rect id="Rectangle" transform="translate(21.000000, 21.000000) scale(1, -1) rotate(90.000000) translate(-21.000000, -21.000000) " x="18" y="18" width="6" height="6"></rect>
                <rect id="Rectangle" transform="translate(12.000000, 21.000000) scale(1, -1) rotate(90.000000) translate(-12.000000, -21.000000) " x="9" y="18" width="6" height="6"></rect>
                <rect id="Rectangle" transform="translate(3.000000, 21.000000) scale(1, -1) rotate(90.000000) translate(-3.000000, -21.000000) " x="0" y="18" width="6" height="6"></rect>
                <rect id="Rectangle" transform="translate(30.000000, 21.000000) scale(1, -1) rotate(90.000000) translate(-30.000000, -21.000000) " x="27" y="18" width="6" height="6"></rect>
                <rect id="Rectangle" transform="translate(21.000000, 12.000000) scale(1, -1) rotate(90.000000) translate(-21.000000, -12.000000) " x="18" y="9" width="6" height="6"></rect>
                <rect id="Rectangle" transform="translate(12.000000, 12.000000) scale(1, -1) rotate(90.000000) translate(-12.000000, -12.000000) " x="9" y="9" width="6" height="6"></rect>
                <rect id="Rectangle" transform="translate(3.000000, 12.000000) scale(1, -1) rotate(90.000000) translate(-3.000000, -12.000000) " x="0" y="9" width="6" height="6"></rect>
                <rect id="Rectangle" transform="translate(30.000000, 12.000000) scale(1, -1) rotate(90.000000) translate(-30.000000, -12.000000) " x="27" y="9" width="6" height="6"></rect>
                <rect id="Rectangle" transform="translate(21.000000, 3.000000) scale(1, -1) rotate(90.000000) translate(-21.000000, -3.000000) " x="18" y="0" width="6" height="6"></rect>
                <rect id="Rectangle" transform="translate(3.000000, 3.000000) scale(1, -1) rotate(90.000000) translate(-3.000000, -3.000000) " x="0" y="0" width="6" height="6"></rect>
                <rect id="Rectangle" transform="translate(12.000000, 3.000000) scale(1, -1) rotate(90.000000) translate(-12.000000, -3.000000) " x="9" y="0" width="6" height="6"></rect>
                <rect id="Rectangle" transform="translate(30.000000, 3.000000) scale(1, -1) rotate(90.000000) translate(-30.000000, -3.000000) " x="27" y="0" width="6" height="6"></rect>
                <rect id="Rectangle" transform="translate(39.000000, 21.000000) scale(1, -1) rotate(90.000000) translate(-39.000000, -21.000000) " x="36" y="18" width="6" height="6"></rect>
                <rect id="Rectangle" transform="translate(39.000000, 12.000000) scale(1, -1) rotate(90.000000) translate(-39.000000, -12.000000) " x="36" y="9" width="6" height="6"></rect>
                <rect id="Rectangle" transform="translate(39.000000, 3.000000) scale(1, -1) rotate(90.000000) translate(-39.000000, -3.000000) " x="36" y="0" width="6" height="6"></rect>
                <rect id="Rectangle" transform="translate(66.000000, 102.000000) scale(1, -1) rotate(90.000000) translate(-66.000000, -102.000000) " x="63" y="99" width="6" height="6"></rect>
                <rect id="Rectangle" transform="translate(57.000000, 102.000000) scale(1, -1) rotate(90.000000) translate(-57.000000, -102.000000) " x="54" y="99" width="6" height="6"></rect>
                <rect id="Rectangle" transform="translate(48.000000, 102.000000) scale(1, -1) rotate(90.000000) translate(-48.000000, -102.000000) " x="45" y="99" width="6" height="6"></rect>
                <rect id="Rectangle" transform="translate(75.000000, 102.000000) scale(1, -1) rotate(90.000000) translate(-75.000000, -102.000000) " x="72" y="99" width="6" height="6"></rect>
                <rect id="Rectangle" transform="translate(66.000000, 93.000000) scale(1, -1) rotate(90.000000) translate(-66.000000, -93.000000) " x="63" y="90" width="6" height="6"></rect>
                <rect id="Rectangle" transform="translate(57.000000, 93.000000) scale(1, -1) rotate(90.000000) translate(-57.000000, -93.000000) " x="54" y="90" width="6" height="6"></rect>
                <rect id="Rectangle" transform="translate(48.000000, 93.000000) scale(1, -1) rotate(90.000000) translate(-48.000000, -93.000000) " x="45" y="90" width="6" height="6"></rect>
                <rect id="Rectangle" transform="translate(75.000000, 93.000000) scale(1, -1) rotate(90.000000) translate(-75.000000, -93.000000) " x="72" y="90" width="6" height="6"></rect>
                <rect id="Rectangle" transform="translate(66.000000, 84.000000) scale(1, -1) rotate(90.000000) translate(-66.000000, -84.000000) " x="63" y="81" width="6" height="6"></rect>
                <rect id="Rectangle" transform="translate(48.000000, 84.000000) scale(1, -1) rotate(90.000000) translate(-48.000000, -84.000000) " x="45" y="81" width="6" height="6"></rect>
                <rect id="Rectangle" transform="translate(57.000000, 84.000000) scale(1, -1) rotate(90.000000) translate(-57.000000, -84.000000) " x="54" y="81" width="6" height="6"></rect>
                <rect id="Rectangle" transform="translate(75.000000, 84.000000) scale(1, -1) rotate(90.000000) translate(-75.000000, -84.000000) " x="72" y="81" width="6" height="6"></rect>
                <rect id="Rectangle" transform="translate(84.000000, 102.000000) scale(1, -1) rotate(90.000000) translate(-84.000000, -102.000000) " x="81" y="99" width="6" height="6"></rect>
                <rect id="Rectangle" transform="translate(84.000000, 93.000000) scale(1, -1) rotate(90.000000) translate(-84.000000, -93.000000) " x="81" y="90" width="6" height="6"></rect>
                <rect id="Rectangle" transform="translate(84.000000, 84.000000) scale(1, -1) rotate(90.000000) translate(-84.000000, -84.000000) " x="81" y="81" width="6" height="6"></rect>
                <rect id="Rectangle" transform="translate(66.000000, 75.000000) scale(1, -1) rotate(90.000000) translate(-66.000000, -75.000000) " x="63" y="72" width="6" height="6"></rect>
                <rect id="Rectangle" transform="translate(57.000000, 75.000000) scale(1, -1) rotate(90.000000) translate(-57.000000, -75.000000) " x="54" y="72" width="6" height="6"></rect>
                <rect id="Rectangle" transform="translate(48.000000, 75.000000) scale(1, -1) rotate(90.000000) translate(-48.000000, -75.000000) " x="45" y="72" width="6" height="6"></rect>
                <rect id="Rectangle" transform="translate(75.000000, 75.000000) scale(1, -1) rotate(90.000000) translate(-75.000000, -75.000000) " x="72" y="72" width="6" height="6"></rect>
                <rect id="Rectangle" transform="translate(66.000000, 66.000000) scale(1, -1) rotate(90.000000) translate(-66.000000, -66.000000) " x="63" y="63" width="6" height="6"></rect>
                <rect id="Rectangle" transform="translate(57.000000, 66.000000) scale(1, -1) rotate(90.000000) translate(-57.000000, -66.000000) " x="54" y="63" width="6" height="6"></rect>
                <rect id="Rectangle" transform="translate(48.000000, 66.000000) scale(1, -1) rotate(90.000000) translate(-48.000000, -66.000000) " x="45" y="63" width="6" height="6"></rect>
                <rect id="Rectangle" transform="translate(75.000000, 66.000000) scale(1, -1) rotate(90.000000) translate(-75.000000, -66.000000) " x="72" y="63" width="6" height="6"></rect>
                <rect id="Rectangle" transform="translate(66.000000, 57.000000) scale(1, -1) rotate(90.000000) translate(-66.000000, -57.000000) " x="63" y="54" width="6" height="6"></rect>
                <rect id="Rectangle" transform="translate(48.000000, 57.000000) scale(1, -1) rotate(90.000000) translate(-48.000000, -57.000000) " x="45" y="54" width="6" height="6"></rect>
                <rect id="Rectangle" transform="translate(57.000000, 57.000000) scale(1, -1) rotate(90.000000) translate(-57.000000, -57.000000) " x="54" y="54" width="6" height="6"></rect>
                <rect id="Rectangle" transform="translate(75.000000, 57.000000) scale(1, -1) rotate(90.000000) translate(-75.000000, -57.000000) " x="72" y="54" width="6" height="6"></rect>
                <rect id="Rectangle" transform="translate(84.000000, 75.000000) scale(1, -1) rotate(90.000000) translate(-84.000000, -75.000000) " x="81" y="72" width="6" height="6"></rect>
                <rect id="Rectangle" transform="translate(84.000000, 66.000000) scale(1, -1) rotate(90.000000) translate(-84.000000, -66.000000) " x="81" y="63" width="6" height="6"></rect>
                <rect id="Rectangle" transform="translate(84.000000, 57.000000) scale(1, -1) rotate(90.000000) translate(-84.000000, -57.000000) " x="81" y="54" width="6" height="6"></rect>
                <rect id="Rectangle" transform="translate(21.000000, 102.000000) scale(1, -1) rotate(90.000000) translate(-21.000000, -102.000000) " x="18" y="99" width="6" height="6"></rect>
                <rect id="Rectangle" transform="translate(12.000000, 102.000000) scale(1, -1) rotate(90.000000) translate(-12.000000, -102.000000) " x="9" y="99" width="6" height="6"></rect>
                <rect id="Rectangle" transform="translate(3.000000, 102.000000) scale(1, -1) rotate(90.000000) translate(-3.000000, -102.000000) " x="0" y="99" width="6" height="6"></rect>
                <rect id="Rectangle" transform="translate(30.000000, 102.000000) scale(1, -1) rotate(90.000000) translate(-30.000000, -102.000000) " x="27" y="99" width="6" height="6"></rect>
                <rect id="Rectangle" transform="translate(21.000000, 93.000000) scale(1, -1) rotate(90.000000) translate(-21.000000, -93.000000) " x="18" y="90" width="6" height="6"></rect>
                <rect id="Rectangle" transform="translate(12.000000, 93.000000) scale(1, -1) rotate(90.000000) translate(-12.000000, -93.000000) " x="9" y="90" width="6" height="6"></rect>
                <rect id="Rectangle" transform="translate(3.000000, 93.000000) scale(1, -1) rotate(90.000000) translate(-3.000000, -93.000000) " x="0" y="90" width="6" height="6"></rect>
                <rect id="Rectangle" transform="translate(30.000000, 93.000000) scale(1, -1) rotate(90.000000) translate(-30.000000, -93.000000) " x="27" y="90" width="6" height="6"></rect>
                <rect id="Rectangle" transform="translate(21.000000, 84.000000) scale(1, -1) rotate(90.000000) translate(-21.000000, -84.000000) " x="18" y="81" width="6" height="6"></rect>
                <rect id="Rectangle" transform="translate(3.000000, 84.000000) scale(1, -1) rotate(90.000000) translate(-3.000000, -84.000000) " x="0" y="81" width="6" height="6"></rect>
                <rect id="Rectangle" transform="translate(12.000000, 84.000000) scale(1, -1) rotate(90.000000) translate(-12.000000, -84.000000) " x="9" y="81" width="6" height="6"></rect>
                <rect id="Rectangle" transform="translate(30.000000, 84.000000) scale(1, -1) rotate(90.000000) translate(-30.000000, -84.000000) " x="27" y="81" width="6" height="6"></rect>
                <rect id="Rectangle" transform="translate(39.000000, 102.000000) scale(1, -1) rotate(90.000000) translate(-39.000000, -102.000000) " x="36" y="99" width="6" height="6"></rect>
                <rect id="Rectangle" transform="translate(39.000000, 93.000000) scale(1, -1) rotate(90.000000) translate(-39.000000, -93.000000) " x="36" y="90" width="6" height="6"></rect>
                <rect id="Rectangle" transform="translate(39.000000, 84.000000) scale(1, -1) rotate(90.000000) translate(-39.000000, -84.000000) " x="36" y="81" width="6" height="6"></rect>
                <rect id="Rectangle" transform="translate(21.000000, 75.000000) scale(1, -1) rotate(90.000000) translate(-21.000000, -75.000000) " x="18" y="72" width="6" height="6"></rect>
                <rect id="Rectangle" transform="translate(12.000000, 75.000000) scale(1, -1) rotate(90.000000) translate(-12.000000, -75.000000) " x="9" y="72" width="6" height="6"></rect>
                <rect id="Rectangle" transform="translate(3.000000, 75.000000) scale(1, -1) rotate(90.000000) translate(-3.000000, -75.000000) " x="0" y="72" width="6" height="6"></rect>
                <rect id="Rectangle" transform="translate(30.000000, 75.000000) scale(1, -1) rotate(90.000000) translate(-30.000000, -75.000000) " x="27" y="72" width="6" height="6"></rect>
                <rect id="Rectangle" transform="translate(21.000000, 66.000000) scale(1, -1) rotate(90.000000) translate(-21.000000, -66.000000) " x="18" y="63" width="6" height="6"></rect>
                <rect id="Rectangle" transform="translate(12.000000, 66.000000) scale(1, -1) rotate(90.000000) translate(-12.000000, -66.000000) " x="9" y="63" width="6" height="6"></rect>
                <rect id="Rectangle" transform="translate(3.000000, 66.000000) scale(1, -1) rotate(90.000000) translate(-3.000000, -66.000000) " x="0" y="63" width="6" height="6"></rect>
                <rect id="Rectangle" transform="translate(30.000000, 66.000000) scale(1, -1) rotate(90.000000) translate(-30.000000, -66.000000) " x="27" y="63" width="6" height="6"></rect>
                <rect id="Rectangle" transform="translate(21.000000, 57.000000) scale(1, -1) rotate(90.000000) translate(-21.000000, -57.000000) " x="18" y="54" width="6" height="6"></rect>
                <rect id="Rectangle" transform="translate(3.000000, 57.000000) scale(1, -1) rotate(90.000000) translate(-3.000000, -57.000000) " x="0" y="54" width="6" height="6"></rect>
                <rect id="Rectangle" transform="translate(12.000000, 57.000000) scale(1, -1) rotate(90.000000) translate(-12.000000, -57.000000) " x="9" y="54" width="6" height="6"></rect>
                <rect id="Rectangle" transform="translate(30.000000, 57.000000) scale(1, -1) rotate(90.000000) translate(-30.000000, -57.000000) " x="27" y="54" width="6" height="6"></rect>
                <rect id="Rectangle" transform="translate(39.000000, 75.000000) scale(1, -1) rotate(90.000000) translate(-39.000000, -75.000000) " x="36" y="72" width="6" height="6"></rect>
                <rect id="Rectangle" transform="translate(39.000000, 66.000000) scale(1, -1) rotate(90.000000) translate(-39.000000, -66.000000) " x="36" y="63" width="6" height="6"></rect>
                <rect id="Rectangle" transform="translate(39.000000, 57.000000) scale(1, -1) rotate(90.000000) translate(-39.000000, -57.000000) " x="36" y="54" width="6" height="6"></rect>
            </g>
        </g>
    </g>
</svg>