<?xml version="1.0" encoding="utf-8"?>
<!-- Generator: Adobe Illustrator 23.0.6, SVG Export Plug-In . SVG Version: 6.00 Build 0)  -->
<svg version="1.1" id="Layer_1" xmlns="http://www.w3.org/2000/svg" xmlns:xlink="http://www.w3.org/1999/xlink" x="0px" y="0px"
	 viewBox="0 0 53 29" style="enable-background:new 0 0 53 29;" xml:space="preserve">
<style type="text/css">
	.st0{enable-background:new    ;}
</style>
<title>JP</title>
<desc>Created with Sketch.</desc>
<g id="Page-1">
	<g id="Homepage" transform="translate(-35.000000, -33.000000)">
		<g class="st0">
			<path d="M38.7,60.2c-1.3-0.7-2.3-1.7-2.9-3l2.1-1.9c0.5,1.1,1.3,1.9,2.2,2.5c1,0.6,2.1,0.9,3.4,0.9c1.7,0,3-0.5,4-1.4
				s1.7-2.5,2.1-4.6L53,35.6H42.8l0.5-2.6h13.1l-4,19.6c-0.6,3.1-1.7,5.3-3.1,6.6c-1.5,1.3-3.5,2-6,2C41.6,61.2,40,60.9,38.7,60.2z"
				/>
			<path d="M84.6,35.1c1.8,1.4,2.6,3.3,2.6,5.8c0,3.6-1.2,6.3-3.5,8.3c-2.3,2-5.5,2.9-9.5,2.9h-7.9L64.5,61h-2.9l5.6-28h10
				C80.4,33,82.8,33.7,84.6,35.1z M81.7,47.4c1.7-1.4,2.6-3.5,2.6-6.2c0-1.8-0.6-3.2-1.9-4.2c-1.3-1-3.1-1.4-5.4-1.4h-7.4l-2.8,14
				h7.5C77.5,49.6,80,48.9,81.7,47.4z"/>
		</g>
	</g>
</g>
</svg>
