<?xml version="1.0" encoding="UTF-8"?>
<svg width="549px" height="300px" viewBox="0 0 549 300" version="1.1" xmlns="http://www.w3.org/2000/svg" xmlns:xlink="http://www.w3.org/1999/xlink">
    <!-- Generator: Sketch 57.1 (83088) - https://sketch.com -->
    <title>logo-jp</title>
    <desc>Created with Sketch.</desc>
    <g id="logo-jp" stroke="none" stroke-width="1" fill="none" fill-rule="evenodd">
        <path d="M81.8897755,300 C62.9095106,300 46.2666175,296.175676 31.960597,288.526912 C17.6545764,280.878149 7.24391568,270.396667 0.728302368,257.082153 L22.8246196,237.110482 C28.4903704,248.441983 36.4223024,257.223765 46.6206536,263.456091 C56.8190049,269.688416 68.8585446,272.804533 82.7396338,272.804533 C100.586749,272.804533 114.821734,267.847075 125.445016,257.932011 C136.068299,248.016948 143.646127,231.586517 148.178727,208.640227 L184.297707,27.1954674 L75.940767,27.1954674 L81.4648463,0 L220.841617,0 L178.773628,208.640227 C172.258015,241.218293 161.139146,264.589164 145.416688,278.753541 C129.694229,292.917918 108.518804,300 81.8897755,300 Z M442.141521,0 C475.56945,0 501.631512,7.36536544 520.32849,22.0963173 C539.025467,36.8272691 548.373815,57.506949 548.373815,84.1359773 C548.373815,122.096507 536.121813,151.487148 511.617442,172.308782 C487.11307,193.130416 453.331538,203.541076 410.271832,203.541076 L326.135855,203.541076 L307.014042,297.450425 L275.994212,297.450425 L335.484297,0 L442.141521,0 Z M410.696762,175.92068 C444.691266,175.92068 470.89497,168.413673 489.30866,153.399433 C507.722349,138.385194 516.929056,116.289098 516.929056,87.1104816 C516.929056,67.5636416 510.271899,52.6912691 496.957385,42.4929178 C483.642871,32.2945666 464.521249,27.1954674 439.591946,27.1954674 L361.404977,27.1954674 L331.235005,175.92068 L410.696762,175.92068 Z" id="JP" fill="#000000" fill-rule="nonzero"></path>
    </g>
</svg>